<?xml version="1.0" encoding="UTF-8" standalone="no"?>
<!-- Created with Inkscape (http://www.inkscape.org/) -->

<svg
   xmlns:dc="http://purl.org/dc/elements/1.1/"
   xmlns:cc="http://creativecommons.org/ns#"
   xmlns:rdf="http://www.w3.org/1999/02/22-rdf-syntax-ns#"
   xmlns:svg="http://www.w3.org/2000/svg"
   xmlns="http://www.w3.org/2000/svg"
   xmlns:sodipodi="http://sodipodi.sourceforge.net/DTD/sodipodi-0.dtd"
   xmlns:inkscape="http://www.inkscape.org/namespaces/inkscape"
   width="150"
   height="150"
   viewBox="0 0 150.00001 150"
   id="svg2"
   version="1.1"
   inkscape:version="0.91 r13725"
   sodipodi:docname="woo-license-keys-reviewer-logo.svg">
  <title
     id="title4232">Reviewer Icon</title>
  <defs
     id="defs4" />
  <sodipodi:namedview
     id="base"
     pagecolor="#ffffff"
     bordercolor="#666666"
     borderopacity="1.0"
     inkscape:pageopacity="0.0"
     inkscape:pageshadow="2"
     inkscape:zoom="1.979899"
     inkscape:cx="27.103338"
     inkscape:cy="41.783632"
     inkscape:document-units="px"
     inkscape:current-layer="layer1"
     showgrid="false"
     units="px"
     inkscape:window-width="1920"
     inkscape:window-height="1017"
     inkscape:window-x="-8"
     inkscape:window-y="-8"
     inkscape:window-maximized="1" />
  <metadata
     id="metadata7">
    <rdf:RDF>
      <cc:Work
         rdf:about="">
        <dc:format>image/svg+xml</dc:format>
        <dc:type
           rdf:resource="http://purl.org/dc/dcmitype/StillImage" />
        <dc:title>Reviewer Icon</dc:title>
        <dc:creator>
          <cc:Agent>
            <dc:title>10 Quality Studio</dc:title>
          </cc:Agent>
        </dc:creator>
        <dc:rights>
          <cc:Agent>
            <dc:title>10 Quality Studio</dc:title>
          </cc:Agent>
        </dc:rights>
        <dc:publisher>
          <cc:Agent>
            <dc:title>10 Quality Studio</dc:title>
          </cc:Agent>
        </dc:publisher>
        <dc:contributor>
          <cc:Agent>
            <dc:title>Camila Mostajo</dc:title>
          </cc:Agent>
        </dc:contributor>
        <dc:description>License Keys for WooCommerce, reviewer icon.</dc:description>
        <dc:language>English</dc:language>
      </cc:Work>
    </rdf:RDF>
  </metadata>
  <g
     inkscape:label="Layer 1"
     inkscape:groupmode="layer"
     id="layer1"
     transform="translate(0,-902.36227)">
    <rect
       style="opacity:1;fill:#ffffff;fill-opacity:1;fill-rule:nonzero;stroke:none;stroke-width:3;stroke-linecap:round;stroke-linejoin:miter;stroke-miterlimit:4;stroke-dasharray:none;stroke-dashoffset:0;stroke-opacity:1"
       id="rect4138"
       width="150.00002"
       height="150.00002"
       x="0"
       y="902.36224" />
    <rect
       style="opacity:1;fill:#e9d3e5;fill-opacity:1;fill-rule:evenodd;stroke:none;stroke-width:10;stroke-linecap:round;stroke-linejoin:miter;stroke-miterlimit:4;stroke-dasharray:none;stroke-dashoffset:0;stroke-opacity:1"
       id="rect4175"
       width="139.09802"
       height="139.09802"
       x="6.0609131"
       y="907.50641"
       rx="15.471912"
       ry="15.471912" />
    <rect
       style="opacity:1;fill:#ffffff;fill-opacity:1;fill-rule:evenodd;stroke:none;stroke-width:10;stroke-linecap:round;stroke-linejoin:miter;stroke-miterlimit:4;stroke-dasharray:none;stroke-dashoffset:0;stroke-opacity:1"
       id="rect4178"
       width="133.94623"
       height="41.220177"
       x="8.4852829"
       y="1003.566"
       rx="16.053007"
       ry="14.820299" />
    <g
       style="font-style:normal;font-variant:normal;font-weight:bold;font-stretch:normal;font-size:18.67219353px;line-height:125%;font-family:Verdana;-inkscape-font-specification:'Verdana Bold';letter-spacing:0px;word-spacing:0px;fill:#6f2d63;fill-opacity:1;stroke:none;stroke-width:1px;stroke-linecap:butt;stroke-linejoin:miter;stroke-opacity:1"
       id="text4161"
       transform="matrix(0.2791642,0,0,0.2791642,5.0272423,908.68951)">
      <path
         d="m 64.149002,467.45438 -28.559885,0 0,-39.5956 10.211355,0 0,31.93708 18.34853,0 0,7.65852 z"
         style="font-style:normal;font-variant:normal;font-weight:bold;font-stretch:normal;font-size:54.46056366px;font-family:Verdana;-inkscape-font-specification:'Verdana Bold';fill:#6f2d63;fill-opacity:1"
         id="path4181"
         inkscape:connector-curvature="0" />
      <path
         d="m 91.671798,467.45438 -23.188287,0 0,-7.02031 6.488466,0 0,-25.55498 -6.488466,0 0,-7.02031 23.188287,0 0,7.02031 -6.488465,0 0,25.55498 6.488465,0 0,7.02031 z"
         style="font-style:normal;font-variant:normal;font-weight:bold;font-stretch:normal;font-size:54.46056366px;font-family:Verdana;-inkscape-font-specification:'Verdana Bold';fill:#6f2d63;fill-opacity:1"
         id="path4183"
         inkscape:connector-curvature="0" />
      <path
         d="m 117.94476,468.22555 q -4.41428,0 -8.16376,-1.30302 -3.72289,-1.30301 -6.40869,-3.88244 -2.6858,-2.57943 -4.174957,-6.43528 -1.462564,-3.85585 -1.462564,-8.90834 0,-4.7068 1.40938,-8.53606 1.409381,-3.82926 4.095181,-6.56824 2.57943,-2.63262 6.3821,-4.06859 3.82925,-1.43597 8.34991,-1.43597 2.49965,0 4.49406,0.29251 2.02099,0.26592 3.72289,0.71799 1.78167,0.50525 3.21764,1.14346 1.46256,0.61162 2.55284,1.14346 l 0,9.59974 -1.17006,0 q -0.74457,-0.63821 -1.88803,-1.51575 -1.11687,-0.87754 -2.55284,-1.72849 -1.46257,-0.85094 -3.16446,-1.43597 -1.70189,-0.58502 -3.64311,-0.58502 -2.15396,0 -4.09518,0.69139 -1.94122,0.6648 -3.58993,2.23373 -1.56893,1.51575 -2.55284,4.01541 -0.95731,2.49965 -0.95731,6.06299 0,3.72289 1.03709,6.22254 1.06368,2.49966 2.6592,3.93563 1.62212,1.46256 3.61653,2.10077 1.9944,0.61162 3.93562,0.61162 1.86145,0 3.66971,-0.55843 1.83485,-0.55844 3.37719,-1.51575 1.30301,-0.77117 2.41988,-1.64871 1.11687,-0.87754 1.83485,-1.51575 l 1.06369,0 0,9.46678 q -1.48916,0.6648 -2.84536,1.24983 -1.35619,0.58502 -2.84535,1.0105 -1.94122,0.55843 -3.64311,0.85094 -1.70189,0.29252 -4.68021,0.29252 z"
         style="font-style:normal;font-variant:normal;font-weight:bold;font-stretch:normal;font-size:54.46056366px;font-family:Verdana;-inkscape-font-specification:'Verdana Bold';fill:#6f2d63;fill-opacity:1"
         id="path4185"
         inkscape:connector-curvature="0" />
      <path
         d="m 168.1506,467.45438 -28.63966,0 0,-39.5956 28.63966,0 0,7.65852 -18.48149,0 0,6.83416 17.15189,0 0,7.65852 -17.15189,0 0,9.78588 18.48149,0 0,7.65852 z"
         style="font-style:normal;font-variant:normal;font-weight:bold;font-stretch:normal;font-size:54.46056366px;font-family:Verdana;-inkscape-font-specification:'Verdana Bold';fill:#6f2d63;fill-opacity:1"
         id="path4187"
         inkscape:connector-curvature="0" />
      <path
         d="m 212.74551,467.45438 -9.83907,0 -16.80619,-27.1771 0,27.1771 -9.36041,0 0,-39.5956 12.20576,0 14.4395,22.68304 0,-22.68304 9.36041,0 0,39.5956 z"
         style="font-style:normal;font-variant:normal;font-weight:bold;font-stretch:normal;font-size:54.46056366px;font-family:Verdana;-inkscape-font-specification:'Verdana Bold';fill:#6f2d63;fill-opacity:1"
         id="path4189"
         inkscape:connector-curvature="0" />
      <path
         d="m 254.60143,455.00929 q 0,5.85025 -4.97272,9.51996 -4.94613,3.64311 -13.45559,3.64311 -4.91953,0 -8.58924,-0.85094 -3.64311,-0.87754 -6.83416,-2.20715 l 0,-9.49337 1.11687,0 q 3.16445,2.52625 7.07349,3.88245 3.93562,1.35619 7.55215,1.35619 0.93072,0 2.44647,-0.15955 1.51574,-0.15955 2.47306,-0.53184 1.17005,-0.47866 1.91463,-1.19664 0.77117,-0.71799 0.77117,-2.12737 0,-1.30301 -1.11687,-2.23373 -1.09027,-0.95732 -3.21764,-1.46257 -2.23373,-0.53184 -4.73339,-0.98391 -2.47306,-0.47865 -4.65361,-1.19664 -4.99931,-1.62211 -7.20645,-4.38769 -2.18055,-2.79217 -2.18055,-6.91394 0,-5.53115 4.94612,-9.01471 4.97272,-3.51016 12.7642,-3.51016 3.90903,0 7.7117,0.77118 3.82926,0.74457 6.62142,1.88803 l 0,9.12108 -1.09027,0 q -2.39329,-1.91463 -5.87685,-3.19105 -3.45697,-1.30301 -7.07349,-1.30301 -1.27642,0 -2.55284,0.18615 -1.24983,0.15955 -2.41988,0.63821 -1.03709,0.39888 -1.78167,1.22323 -0.74457,0.79776 -0.74457,1.83486 0,1.56893 1.19664,2.41987 1.19664,0.82436 4.52065,1.51575 2.18055,0.45207 4.17496,0.87754 2.02099,0.42547 4.3345,1.17005 4.54725,1.48916 6.70121,4.06859 2.18055,2.55284 2.18055,6.64802 z"
         style="font-style:normal;font-variant:normal;font-weight:bold;font-stretch:normal;font-size:54.46056366px;font-family:Verdana;-inkscape-font-specification:'Verdana Bold';fill:#6f2d63;fill-opacity:1"
         id="path4191"
         inkscape:connector-curvature="0" />
      <path
         d="m 290.26139,467.45438 -28.63967,0 0,-39.5956 28.63967,0 0,7.65852 -18.48149,0 0,6.83416 17.15188,0 0,7.65852 -17.15188,0 0,9.78588 18.48149,0 0,7.65852 z"
         style="font-style:normal;font-variant:normal;font-weight:bold;font-stretch:normal;font-size:54.46056366px;font-family:Verdana;-inkscape-font-specification:'Verdana Bold';fill:#6f2d63;fill-opacity:1"
         id="path4193"
         inkscape:connector-curvature="0" />
      <path
         d="m 354.42807,467.45438 -12.52486,0 -11.83347,-15.84888 -2.39329,2.89854 0,12.95034 -10.21136,0 0,-39.5956 10.21136,0 0,17.92306 14.14698,-17.92306 11.83347,0 -15.47658,18.32194 16.24775,21.27366 z"
         style="font-style:normal;font-variant:normal;font-weight:bold;font-stretch:normal;font-size:54.46056366px;font-family:Verdana;-inkscape-font-specification:'Verdana Bold';fill:#6f2d63;fill-opacity:1"
         id="path4195"
         inkscape:connector-curvature="0" />
      <path
         d="m 388.12023,467.45438 -28.63966,0 0,-39.5956 28.63966,0 0,7.65852 -18.48149,0 0,6.83416 17.15188,0 0,7.65852 -17.15188,0 0,9.78588 18.48149,0 0,7.65852 z"
         style="font-style:normal;font-variant:normal;font-weight:bold;font-stretch:normal;font-size:54.46056366px;font-family:Verdana;-inkscape-font-specification:'Verdana Bold';fill:#6f2d63;fill-opacity:1"
         id="path4197"
         inkscape:connector-curvature="0" />
      <path
         d="m 431.54506,427.85878 -14.59905,24.27856 0,15.31704 -10.21135,0 0,-14.83838 -14.83838,-24.75722 11.59415,0 8.56264,15.31703 8.27014,-15.31703 11.22185,0 z"
         style="font-style:normal;font-variant:normal;font-weight:bold;font-stretch:normal;font-size:54.46056366px;font-family:Verdana;-inkscape-font-specification:'Verdana Bold';fill:#6f2d63;fill-opacity:1"
         id="path4199"
         inkscape:connector-curvature="0" />
      <path
         d="m 468.50806,455.00929 q 0,5.85025 -4.97272,9.51996 -4.94612,3.64311 -13.45559,3.64311 -4.91953,0 -8.58924,-0.85094 -3.64311,-0.87754 -6.83416,-2.20715 l 0,-9.49337 1.11687,0 q 3.16445,2.52625 7.07349,3.88245 3.93563,1.35619 7.55215,1.35619 0.93072,0 2.44647,-0.15955 1.51575,-0.15955 2.47306,-0.53184 1.17005,-0.47866 1.91463,-1.19664 0.77117,-0.71799 0.77117,-2.12737 0,-1.30301 -1.11687,-2.23373 -1.09027,-0.95732 -3.21764,-1.46257 -2.23373,-0.53184 -4.73339,-0.98391 -2.47306,-0.47865 -4.65361,-1.19664 -4.99931,-1.62211 -7.20645,-4.38769 -2.18055,-2.79217 -2.18055,-6.91394 0,-5.53115 4.94612,-9.01471 4.97272,-3.51016 12.7642,-3.51016 3.90903,0 7.7117,0.77118 3.82926,0.74457 6.62143,1.88803 l 0,9.12108 -1.09028,0 q -2.39329,-1.91463 -5.87685,-3.19105 -3.45697,-1.30301 -7.07349,-1.30301 -1.27642,0 -2.55284,0.18615 -1.24982,0.15955 -2.41988,0.63821 -1.03709,0.39888 -1.78166,1.22323 -0.74458,0.79776 -0.74458,1.83486 0,1.56893 1.19664,2.41987 1.19664,0.82436 4.52065,1.51575 2.18055,0.45207 4.17496,0.87754 2.021,0.42547 4.33451,1.17005 4.54724,1.48916 6.7012,4.06859 2.18055,2.55284 2.18055,6.64802 z"
         style="font-style:normal;font-variant:normal;font-weight:bold;font-stretch:normal;font-size:54.46056366px;font-family:Verdana;-inkscape-font-specification:'Verdana Bold';fill:#6f2d63;fill-opacity:1"
         id="path4201"
         inkscape:connector-curvature="0" />
    </g>
    <path
       sodipodi:type="star"
       style="opacity:1;fill:#ffb900;fill-opacity:1;fill-rule:evenodd;stroke:none;stroke-width:4;stroke-linecap:round;stroke-linejoin:miter;stroke-miterlimit:4;stroke-dasharray:none;stroke-dashoffset:0;stroke-opacity:1"
       id="path4179"
       sodipodi:sides="5"
       sodipodi:cx="40.72913"
       sodipodi:cy="1004.0901"
       sodipodi:r1="6.9927316"
       sodipodi:r2="3.4963665"
       sodipodi:arg1="0.36717383"
       sodipodi:arg2="0.99549236"
       inkscape:flatsided="false"
       inkscape:rounded="0"
       inkscape:randomized="0"
       d="m 47.255765,1006.6003 -4.624298,0.4233 -2.27288,4.0494 -1.83157,-4.2672 -4.553531,-0.9103 3.492325,-3.0605 -0.541355,-4.612 3.989945,2.3756 4.218954,-1.94 -1.026403,4.5288 z"
       inkscape:transform-center-x="-0.011286929"
       inkscape:transform-center-y="-0.65698371"
       transform="matrix(0.78001904,-0.62575578,0.62575578,0.78001904,-554.6768,258.42775)" />
    <path
       sodipodi:type="star"
       style="opacity:1;fill:#ffb900;fill-opacity:1;fill-rule:evenodd;stroke:none;stroke-width:4;stroke-linecap:round;stroke-linejoin:miter;stroke-miterlimit:4;stroke-dasharray:none;stroke-dashoffset:0;stroke-opacity:1"
       id="path4179-5"
       sodipodi:sides="5"
       sodipodi:cx="102.77097"
       sodipodi:cy="285.39426"
       sodipodi:r1="31.004993"
       sodipodi:r2="15.502498"
       sodipodi:arg1="0.36717383"
       sodipodi:arg2="0.99549236"
       inkscape:flatsided="false"
       inkscape:rounded="0"
       inkscape:randomized="0"
       d="m 131.70935,296.5244 -20.50363,1.87687 -10.07769,17.95442 -8.12098,-18.92012 -20.189848,-4.03624 15.484583,-13.57015 -2.400314,-20.44895 17.690979,10.53331 18.70637,-8.60191 -4.55096,20.08009 z"
       inkscape:transform-center-x="-0.0324706"
       inkscape:transform-center-y="-0.85727001"
       transform="matrix(0.24984769,0.16606068,-0.16606068,0.24984769,106.30902,928.1063)" />
    <path
       sodipodi:type="star"
       style="opacity:1;fill:#ffb900;fill-opacity:1;fill-rule:evenodd;stroke:none;stroke-width:4;stroke-linecap:round;stroke-linejoin:miter;stroke-miterlimit:4;stroke-dasharray:none;stroke-dashoffset:0;stroke-opacity:1"
       id="path4179-3"
       sodipodi:sides="5"
       sodipodi:cx="144.8335"
       sodipodi:cy="252.67322"
       sodipodi:r1="23.309105"
       sodipodi:r2="11.654553"
       sodipodi:arg1="0.36717383"
       sodipodi:arg2="0.99549236"
       inkscape:flatsided="false"
       inkscape:rounded="0"
       inkscape:randomized="0"
       d="m 166.58895,261.0407 -15.41433,1.411 -7.57627,13.49787 -6.10523,-14.22387 -15.17844,-3.03438 11.64109,-10.20184 -1.80452,-15.37323 13.29982,7.91879 14.06318,-6.46679 -3.42135,15.09592 z"
       inkscape:transform-center-x="-0.0053198"
       inkscape:transform-center-y="-1.1398249"
       transform="matrix(0.39999153,-0.3233876,0.3233876,0.39999153,-104.18745,961.86638)" />
    <path
       sodipodi:type="star"
       style="opacity:1;fill:#ffb900;fill-opacity:1;fill-rule:evenodd;stroke:none;stroke-width:4;stroke-linecap:round;stroke-linejoin:miter;stroke-miterlimit:4;stroke-dasharray:none;stroke-dashoffset:0;stroke-opacity:1"
       id="path4179-6"
       sodipodi:sides="5"
       sodipodi:cx="69.578804"
       sodipodi:cy="1012.1915"
       sodipodi:r1="11.610266"
       sodipodi:r2="5.8051333"
       sodipodi:arg1="0.36717383"
       sodipodi:arg2="0.99549236"
       inkscape:flatsided="false"
       inkscape:rounded="0"
       inkscape:randomized="0"
       d="m 80.415195,1016.3594 -7.677877,0.7028 -3.773739,6.7233 -3.041017,-7.0849 -7.560378,-1.5115 5.798424,-5.0815 -0.898832,-7.6574 6.62464,3.9444 7.004871,-3.2212 -1.704172,7.5193 z"
       inkscape:transform-center-x="0.011331182"
       inkscape:transform-center-y="-1.0037386"
       transform="matrix(0.76948304,0.49523249,-0.49523249,0.76948304,508.4848,202.49057)" />
    <path
       sodipodi:type="star"
       style="opacity:1;fill:#ffb900;fill-opacity:1;fill-rule:evenodd;stroke:none;stroke-width:4;stroke-linecap:round;stroke-linejoin:miter;stroke-miterlimit:4;stroke-dasharray:none;stroke-dashoffset:0;stroke-opacity:1"
       id="path4179-0"
       sodipodi:sides="5"
       sodipodi:cx="24.311144"
       sodipodi:cy="1004.9726"
       sodipodi:r1="4.1209264"
       sodipodi:r2="2.0604632"
       sodipodi:arg1="0.36717383"
       sodipodi:arg2="0.99549236"
       inkscape:flatsided="false"
       inkscape:rounded="0"
       inkscape:randomized="0"
       d="m 28.157392,1006.4519 -2.725171,0.2495 -1.339444,2.3863 -1.079373,-2.5147 -2.683467,-0.5364 2.058083,-1.8037 -0.31903,-2.7179 2.351337,1.4 2.486296,-1.1433 -0.604876,2.6689 z"
       inkscape:transform-center-x="-0.045040062"
       inkscape:transform-center-y="-0.35043371"
       transform="matrix(0.79852572,-0.6019607,0.6019607,0.79852572,-503.2905,229.80612)" />
    <g
       id="g4"
       transform="matrix(0.39776957,0,0,0.39776957,12.000001,911.74801)">
      <path
         style="fill:#6f2d63;fill-opacity:1"
         inkscape:connector-curvature="0"
         d="M 23.758664,0 232.13744,0 C 245.32464,0 256,10.675357 256,23.862562 l 0,79.541868 c 0,13.18721 -10.67536,23.86257 -23.86256,23.86257 l -74.7275,0 10.25672,25.11848 -45.10862,-25.11848 -98.694715,0 C 10.67612,127.267 7.6303846e-4,116.59164 7.6303846e-4,103.40443 l 0,-79.541868 C -0.10389732,10.780017 10.571459,0 23.758664,0 l 0,0 z"
         id="path6" />
      <path
         style="fill:#ffffff;fill-opacity:1"
         inkscape:connector-curvature="0"
         d="m 14.578199,21.749593 c 1.456911,-1.977235 3.642277,-3.017886 6.556098,-3.226016 5.307317,-0.41626 8.325203,2.081301 9.053658,7.492683 3.226017,21.749594 6.764228,40.169106 10.51057,55.258537 L 63.488768,37.879675 c 2.081301,-3.954472 4.682927,-6.035773 7.804878,-6.243903 4.578862,-0.312195 7.388618,2.601626 8.533334,8.741464 2.601626,13.84065 5.931707,25.6 9.886179,35.590244 2.705691,-26.432521 7.284553,-45.476423 13.736581,-57.235773 1.56098,-2.913821 3.85041,-4.370731 6.8683,-4.578861 2.39349,-0.208131 4.57886,0.520325 6.55609,2.0813 1.97724,1.560976 3.01789,3.538212 3.22602,5.931708 0.10407,1.87317 -0.20813,3.434146 -1.04065,4.995122 -4.05854,7.492682 -7.38862,20.084552 -10.09431,37.567479 -2.60163,16.962602 -3.53821,30.178862 -2.91382,39.648785 0.20813,2.60162 -0.20813,4.89105 -1.24878,6.86829 -1.24878,2.28943 -3.12195,3.53821 -5.515448,3.74634 C 96.581451,115.2 93.771695,113.95122 91.066004,111.14146 81.387956,101.25529 73.687142,86.478049 68.06763,66.809756 61.303403,80.130081 56.308281,90.120325 53.082264,96.780488 46.942427,108.53984 41.739175,114.57561 37.368443,114.88781 34.558687,115.09593 32.165191,112.70244 30.08389,107.70732 24.776573,94.074797 19.052996,67.746341 12.913159,28.721951 c -0.41626,-2.705691 0.20813,-5.099187 1.66504,-6.972358 z M 238.21397,38.087805 c -3.74634,-6.556098 -9.26179,-10.510569 -16.65041,-12.071545 -1.97723,-0.41626 -3.8504,-0.62439 -5.61951,-0.62439 -9.99024,0 -18.10731,5.203252 -24.45528,15.609756 -5.41138,8.845529 -8.11708,18.627642 -8.11708,29.346341 0,8.013009 1.66505,14.881301 4.99513,20.604878 3.74634,6.556098 9.26179,10.510565 16.6504,12.071545 1.97724,0.41626 3.85041,0.62439 5.61952,0.62439 10.0943,0 18.21138,-5.203252 24.45528,-15.609756 5.41138,-8.949593 8.11707,-18.731707 8.11707,-29.450406 0.10407,-8.117073 -1.66504,-14.881301 -4.99512,-20.500813 z m -13.11219,28.826016 c -1.45691,6.868293 -4.05854,11.96748 -7.90895,15.401626 -3.01788,2.705691 -5.82764,3.850407 -8.42927,3.330081 -2.49756,-0.520325 -4.57886,-2.705691 -6.13983,-6.764227 -1.24878,-3.226016 -1.87317,-6.452033 -1.87317,-9.469919 0,-2.601626 0.20813,-5.203252 0.72845,-7.596748 0.93659,-4.266667 2.70569,-8.429268 5.51545,-12.38374 3.43415,-5.099187 7.07642,-7.180488 10.82276,-6.452032 2.49756,0.520325 4.57887,2.705691 6.13984,6.764227 1.24878,3.226017 1.87317,6.452033 1.87317,9.469919 0,2.705691 -0.20813,5.307317 -0.72845,7.700813 z M 173.06926,38.087805 C 169.32291,31.531707 163.7034,27.577236 156.41885,26.01626 154.44161,25.6 152.56844,25.39187 150.79934,25.39187 c -9.99025,0 -18.10732,5.203252 -24.45529,15.609756 -5.41138,8.845529 -8.11707,18.627642 -8.11707,29.346341 0,8.013009 1.66504,14.881301 4.99512,20.604878 3.74634,6.556098 9.26179,10.510565 16.65041,12.071545 1.97723,0.41626 3.8504,0.62439 5.61951,0.62439 10.09431,0 18.21138,-5.203252 24.45528,-15.609756 5.41139,-8.949593 8.11708,-18.731707 8.11708,-29.450406 0,-8.117073 -1.66504,-14.881301 -4.99512,-20.500813 z M 159.853,66.913821 c -1.45691,6.868293 -4.05854,11.96748 -7.90895,15.401626 -3.01788,2.705691 -5.82764,3.850407 -8.42927,3.330081 -2.49756,-0.520325 -4.57886,-2.705691 -6.13983,-6.764227 -1.24878,-3.226016 -1.87317,-6.452033 -1.87317,-9.469919 0,-2.601626 0.20813,-5.203252 0.72845,-7.596748 0.93659,-4.266667 2.70569,-8.429268 5.51545,-12.38374 3.43414,-5.099187 7.07642,-7.180488 10.82276,-6.452032 2.49756,0.520325 4.57886,2.705691 6.13984,6.764227 1.24878,3.226017 1.87317,6.452033 1.87317,9.469919 0.10407,2.705691 -0.20813,5.307317 -0.72845,7.700813 l 0,0 0,0 z"
         id="path8" />
    </g>
    <path
       id="path4227"
       d="m 131.02298,985.28794 3.129,-8.5855 c 2.10637,-5.7796 -0.88342,-12.1937 -6.66036,-14.2991 l -5.23985,-1.9096 c -5.77694,-2.1055 -12.19268,0.8807 -14.29905,6.6603 l -3.129,8.5855 c -1.8928,0.34 -3.56045,1.6258 -4.26511,3.5593 l -4.774182,13.0996 c -1.054141,2.89245 0.437779,6.09545 3.330176,7.14965 l 20.959406,7.63871 c 2.8924,1.0541 6.09538,-0.4378 7.14953,-3.3302 l 4.77418,-13.09976 c 0.70467,-1.9335 0.25541,-3.9907 -0.97474,-5.4689 z m -14.72491,7.82885 -2.17416,5.9656 -5.23985,-1.9097 2.17416,-5.96565 c -1.23015,-1.4781 -1.67941,-3.5354 -0.97474,-5.4689 1.05414,-2.8924 4.25712,-4.3843 7.14952,-3.3302 2.8924,1.0541 4.38432,4.2571 3.33018,7.1495 -0.70467,1.9335 -2.37231,3.21935 -4.26511,3.55935 z m 9.74954,-10.46425 -15.71955,-5.729 2.86451,-7.8598 c 1.05319,-2.8898 4.25713,-4.3843 7.14953,-3.3302 l 5.23985,1.9097 c 2.8924,1.0541 4.38336,4.2597 3.33018,7.1495 l -2.86452,7.8598 z"
       inkscape:connector-curvature="0"
       style="display:inline;fill:#000000;fill-opacity:1" />
    <g
       id="g4206"
       transform="matrix(0.09000305,-0.09428668,0.09507246,0.08925917,62.798981,990.31484)"
       style="display:inline;stroke:#986f00;stroke-width:7.67017746;stroke-miterlimit:4;stroke-dasharray:none;stroke-opacity:1;fill:#ffefa0;fill-opacity:1">
      <g
         id="g4166"
         transform="matrix(1.1450499,0.07027563,-0.07027563,1.1450499,-5.0601753,-41.822263)"
         style="fill:#ffefa0;fill-opacity:1;stroke:#986f00;stroke-width:6.68597317;stroke-miterlimit:4;stroke-dasharray:none;stroke-opacity:1">
        <path
           id="path4168"
           d="m 279.806,235.505 c -0.136,-1.772 -0.928,-3.476 -2.227,-4.747 L 165.336,118.515 c 4.416,-10.403 6.747,-21.669 6.747,-33.312 0,-22.754 -8.875,-44.163 -24.938,-60.266 C 131.059,8.866 109.665,0 86.898,0 64.12,0 42.763,8.869 26.651,24.95 c -33.243,33.225 -33.25,87.266 -0.005,120.488 16.111,16.115 37.475,24.99 60.241,24.99 11.646,0 22.884,-2.35 33.312,-6.772 l 36.874,36.902 c 1.534,1.515 3.557,2.319 5.74,2.248 l 20.095,-0.705 -0.656,20.145 c -0.062,2.125 0.705,4.193 2.245,5.706 1.484,1.512 3.569,2.334 5.685,2.248 l 20.169,-0.689 -0.724,20.123 c -0.063,2.127 0.754,4.199 2.238,5.712 1.534,1.512 3.321,2.325 5.74,2.251 l 20.119,-0.684 -0.674,20.126 c -0.118,2.232 0.822,4.379 2.418,5.903 1.472,1.339 3.309,2.06 5.245,2.06 0.278,0 0.563,-0.012 0.847,-0.037 l 30.851,-3.426 c 4.169,-0.455 7.205,-4.175 6.847,-8.353 l -3.452,-37.681 z M 76.607,74.915 c -9.476,9.466 -24.796,9.466 -34.252,0 -9.47,-9.469 -9.47,-24.786 0,-34.246 9.456,-9.46 24.771,-9.469 34.252,-0.003 9.457,9.459 9.451,24.786 0,34.249 z m 176.864,163.16 c -1.126,1.126 -2.635,1.688 -4.101,1.688 -1.466,0 -2.976,-0.563 -4.101,-1.688 l -95.501,-95.529 c 2.659,-2.867 5.077,-5.885 7.273,-9.058 l 96.429,96.41 c 2.252,2.252 2.252,5.926 0.001,8.177 z"
           inkscape:connector-curvature="0"
           style="fill:#ffefa0;fill-opacity:1;stroke:#986f00;stroke-width:6.68597317;stroke-miterlimit:4;stroke-dasharray:none;stroke-opacity:1" />
      </g>
      <g
         id="g4170"
         style="stroke:#986f00;stroke-width:7.67017746;stroke-miterlimit:4;stroke-dasharray:none;stroke-opacity:1;fill:#ffefa0;fill-opacity:1" />
      <g
         id="g4172"
         style="stroke:#986f00;stroke-width:7.67017746;stroke-miterlimit:4;stroke-dasharray:none;stroke-opacity:1;fill:#ffefa0;fill-opacity:1" />
      <g
         id="g4174"
         style="stroke:#986f00;stroke-width:7.67017746;stroke-miterlimit:4;stroke-dasharray:none;stroke-opacity:1;fill:#ffefa0;fill-opacity:1" />
      <g
         id="g4176"
         style="stroke:#986f00;stroke-width:7.67017746;stroke-miterlimit:4;stroke-dasharray:none;stroke-opacity:1;fill:#ffefa0;fill-opacity:1" />
      <g
         id="g4178"
         style="stroke:#986f00;stroke-width:7.67017746;stroke-miterlimit:4;stroke-dasharray:none;stroke-opacity:1;fill:#ffefa0;fill-opacity:1" />
      <g
         id="g4180"
         style="stroke:#986f00;stroke-width:7.67017746;stroke-miterlimit:4;stroke-dasharray:none;stroke-opacity:1;fill:#ffefa0;fill-opacity:1" />
      <g
         id="g4182"
         style="stroke:#986f00;stroke-width:7.67017746;stroke-miterlimit:4;stroke-dasharray:none;stroke-opacity:1;fill:#ffefa0;fill-opacity:1" />
      <g
         id="g4184"
         style="stroke:#986f00;stroke-width:7.67017746;stroke-miterlimit:4;stroke-dasharray:none;stroke-opacity:1;fill:#ffefa0;fill-opacity:1" />
      <g
         id="g4186"
         style="stroke:#986f00;stroke-width:7.67017746;stroke-miterlimit:4;stroke-dasharray:none;stroke-opacity:1;fill:#ffefa0;fill-opacity:1" />
      <g
         id="g4188"
         style="stroke:#986f00;stroke-width:7.67017746;stroke-miterlimit:4;stroke-dasharray:none;stroke-opacity:1;fill:#ffefa0;fill-opacity:1" />
      <g
         id="g4190"
         style="stroke:#986f00;stroke-width:7.67017746;stroke-miterlimit:4;stroke-dasharray:none;stroke-opacity:1;fill:#ffefa0;fill-opacity:1" />
      <g
         id="g4192"
         style="stroke:#986f00;stroke-width:7.67017746;stroke-miterlimit:4;stroke-dasharray:none;stroke-opacity:1;fill:#ffefa0;fill-opacity:1" />
      <g
         id="g4194"
         style="stroke:#986f00;stroke-width:7.67017746;stroke-miterlimit:4;stroke-dasharray:none;stroke-opacity:1;fill:#ffefa0;fill-opacity:1" />
      <g
         id="g4196"
         style="stroke:#986f00;stroke-width:7.67017746;stroke-miterlimit:4;stroke-dasharray:none;stroke-opacity:1;fill:#ffefa0;fill-opacity:1" />
      <g
         id="g4198"
         style="stroke:#986f00;stroke-width:7.67017746;stroke-miterlimit:4;stroke-dasharray:none;stroke-opacity:1;fill:#ffefa0;fill-opacity:1" />
    </g>
  </g>
</svg>
